<svg xmlns="http://www.w3.org/2000/svg" xmlns:xlink="http://www.w3.org/1999/xlink" viewBox="0,0,256,256" width="100px" height="100px" fill-rule="nonzero"><g fill="#ffffff" fill-rule="nonzero" stroke="none" stroke-width="1" stroke-linecap="butt" stroke-linejoin="miter" stroke-miterlimit="10" stroke-dasharray="" stroke-dashoffset="0" font-family="none" font-weight="none" font-size="none" text-anchor="none" style="mix-blend-mode: normal"><g transform="scale(5.12,5.12)"><path d="M34.30078,7.13086c-0.37551,0.0492 -0.74041,0.23414 -0.9375,0.43555c-0.26362,0.26939 -0.35883,0.49889 -0.42383,0.61523c-0.00131,0.0026 -0.00262,0.0052 -0.00391,0.00781c-0.72245,1.32026 -0.99424,2.76544 -0.96875,4.17969c0,0.00065 0,0.0013 0,0.00195c0.05823,3.03954 1.41173,5.61862 3.88867,7.39844c-0.07123,0.22847 -0.14952,0.475 -0.22852,0.71484c-0.97268,-0.48167 -1.89078,-1.04915 -2.6875,-1.83008c-0.00195,-0.00131 -0.0039,-0.00261 -0.00586,-0.00391c-1.66522,-1.61078 -3.23914,-3.47966 -5.29297,-5.00195c-0.00065,-0.00065 -0.0013,-0.0013 -0.00195,-0.00195c-0.42383,-0.31273 -0.85212,-0.60345 -1.29102,-0.88476c-0.34199,-0.34339 -0.4498,-0.5906 -0.47266,-0.75c-0.02373,-0.16554 0.01021,-0.30679 0.11523,-0.49024c0.10503,-0.18344 0.28866,-0.38075 0.4668,-0.52539c0.17691,-0.14364 0.39573,-0.24437 0.32422,-0.21875l0.00195,-0.00195c0.33915,-0.1231 0.77669,-0.43093 0.87305,-0.98438c0.09656,-0.55461 -0.22348,-1.00998 -0.51172,-1.24023c-0.57647,-0.46051 -1.26307,-0.5749 -2.26367,-0.57031c-1.96405,0.00901 -3.68523,0.65279 -5.72656,1.43359c-0.00326,0.00128 -0.00652,0.00259 -0.00977,0.00391c-0.20995,0.08277 -0.45466,0.14951 -0.7168,0.20898c-1.84299,-0.31759 -3.74213,-0.42456 -5.72266,-0.20117h-0.00195c-4.02016,0.44839 -7.33516,2.4092 -9.69336,5.65039c-2.82812,3.88813 -3.49658,8.3736 -2.69531,12.9082c0.84692,4.79991 3.32787,8.81646 7.06836,11.9043c3.88295,3.20374 8.44999,4.80792 13.57031,4.50586c2.90285,-0.16741 6.40772,-0.66691 10.16211,-3.66602c0.93007,0.35985 1.85222,0.61957 3.23438,0.73828c1.4115,0.13117 2.71945,-0.06835 3.70703,-0.27344c0.0013,0 0.0026,0 0.00391,0c2.05823,-0.43515 2.81028,-2.98494 1.05469,-3.80664c-0.03061,-0.01394 -0.0619,-0.02632 -0.09375,-0.03711c-1.63491,-0.57273 -2.46106,-0.94568 -3.0332,-1.22266c2.11848,-2.38541 5.06253,-5.49701 6.25391,-13.54687c0.09772,-0.66295 0.03613,-1.07358 0.00781,-1.48437c1.03823,-0.16223 2.07646,-0.40924 3.03711,-0.9375c3.09639,-1.69186 4.41573,-4.62179 4.69922,-7.82226c0.00001,-0.00195 0.00001,-0.00391 0,-0.00586c0.02416,-0.29125 0.03758,-0.6503 -0.09766,-1.0625c-0.13523,-0.4122 -0.48183,-0.85857 -0.94727,-1.08984c-0.00195,-0.00066 -0.0039,-0.00131 -0.00586,-0.00195c-0.53065,-0.2601 -1.30303,-0.10081 -1.63477,0.15039c-0.33173,0.2512 -0.46662,0.44368 -0.45898,0.4375l0.02148,-0.01758c-0.21743,0.16627 -0.3338,0.31666 -0.40039,0.38867l0.00391,-0.00586c-0.62663,0.66964 -1.15832,0.9833 -1.96094,0.93945c-1.4503,-0.08094 -2.77346,0.42876 -3.97656,1.24805c-0.55349,-1.13081 -1.36231,-2.06126 -2.49219,-2.56445c-0.0013,-0.00065 -0.0026,-0.0013 -0.00391,-0.00195c-0.70413,-0.31106 -1.19052,-0.54977 -1.5,-0.97266c-0.18812,-0.26602 -0.27121,-0.65597 -0.4707,-1.26953c-0.0019,-0.00588 -0.00385,-0.01174 -0.00586,-0.01758c-0.05382,-0.15618 -0.11825,-0.39408 -0.31445,-0.68359c-0.19537,-0.28828 -0.61377,-0.60687 -1.06836,-0.67578c-0.1218,-0.01841 -0.24788,-0.0164 -0.37305,0zM34.50391,9.96484c0.10778,0.33141 0.13383,0.60423 0.40234,0.98047c0.00194,0.00261 0.00389,0.00522 0.00586,0.00781c0.67664,0.92918 1.61229,1.31676 2.31445,1.62695c1.1377,0.50757 1.69677,1.0835 1.91211,2.34961c0.06294,0.36975 0.32747,0.6732 0.68518,0.78598c0.35771,0.11279 0.74845,0.01595 1.01209,-0.25083c1.08336,-1.09721 2.14088,-1.47991 3.55859,-1.40039c0.00065,0 0.0013,0 0.00195,0c1.45249,0.07934 2.64244,-0.63973 3.5,-1.54492c-0.302,2.59964 -1.20454,4.59304 -3.57031,5.88477c-0.0013,0.00065 -0.00261,0.0013 -0.00391,0.00195c-0.8261,0.45427 -1.73896,0.71625 -2.70703,0.83008c-0.30093,0.02994 -0.72725,0.11275 -1.04883,0.49805c-0.32158,0.3853 -0.31835,0.78321 -0.3125,1.0332c-0.00001,0.00195 -0.00001,0.00391 0,0.00586c0.01849,0.64831 0.09107,0.9638 0.00977,1.51562c-1.25941,8.50645 -4.26756,10.79763 -6.55664,13.50586c-0.32948,0.38911 -0.3135,0.96379 0.03711,1.33398c0,0 0.15505,0.14544 0.30664,0.24805c0.15159,0.10261 0.36764,0.23112 0.69336,0.39648c0.57726,0.29306 1.69864,0.75123 3.20508,1.29687c0.01,0.04006 0.04633,0.09222 -0.30273,0.16602c-0.88988,0.18461 -2.0062,0.34293 -3.11133,0.24023c-0.0026,-0.00001 -0.00521,-0.00001 -0.00781,0c-1.59374,-0.13648 -2.41262,-0.30313 -3.19727,-0.69336c-0.35741,-0.17832 -0.78665,-0.12687 -1.0918,0.13086c-0.09221,0.07805 -0.18005,0.13452 -0.27148,0.20898c-0.44467,-0.30261 -0.91151,-0.66517 -1.48047,-1.14258c-1.971,-1.665 -3.51998,-3.69613 -4.95898,-5.82812c-1.353,-2.008 -2.6673,-4.06125 -4.4043,-5.78125c-3.043,-3.019 -6.67255,-4.92583 -10.93555,-5.54883c-1.01,-0.148 -2.04959,-0.10887 -3.05859,0.07813c-0.766,0.14 -0.99212,0.41359 -0.95312,1.18359c0.149,3.19 1.0467,6.17884 2.5957,8.96484c1.604,2.894 3.87956,5.01028 6.60156,6.61328c0.11,0.055 2.44992,1.16698 3.79492,0.33398c0.61,-0.373 0.45356,-0.87008 0.22656,-1.20508c-0.328,-0.505 -0.56219,-0.90252 -0.74219,-1.47852c-0.172,-0.583 -0.31325,-1.47839 0.46875,-1.52539c0.837,-0.046 2.86206,1.03631 7.03906,4.32031c1.62045,1.28131 3.86571,1.38276 5.48047,1.26758c-3.26753,2.53664 -6.05183,2.86478 -8.80273,3.02344c-0.00065,0 -0.0013,0 -0.00195,0c-4.64363,0.27394 -8.63063,-1.12448 -12.17969,-4.05273c-3.42351,-2.82617 -5.60601,-6.3729 -6.37109,-10.70898c-0.73073,-4.13539 -0.15009,-7.95889 2.3418,-11.38477c2.06942,-2.84429 4.77992,-4.44782 8.29883,-4.83984c0.00065,0 0.0013,0 0.00195,0c1.90581,-0.21514 3.71857,-0.14006 5.4668,0.19141c0.13186,0.02479 0.26736,0.0228 0.39844,-0.00586c0.35344,-0.07707 0.71774,-0.17408 1.08398,-0.31836c1.94093,-0.74228 3.36863,-1.22384 4.82617,-1.26953c-0.15323,0.17349 -0.32017,0.29218 -0.44922,0.51758c-0.27035,0.47218 -0.45592,1.09421 -0.35937,1.76758c0.09655,0.67337 0.46676,1.33986 1.07617,1.93164c0.05004,0.04857 0.10503,0.09178 0.16406,0.12891c0.44791,0.28209 0.8802,0.57852 1.31641,0.90039c1.80924,1.34153 3.33171,3.12948 5.0918,4.83203c1.08088,1.05868 2.32814,1.95494 3.7832,2.5625c0.0026,0.00066 0.00521,0.00131 0.00781,0.00195c0.2916,0.11877 0.71045,0.26231 1.20898,0.04492c0.49854,-0.21739 0.69126,-0.66415 0.78125,-0.95703c0.16098,-0.52411 0.35756,-1.06796 0.53125,-1.6582v-0.00195c0.08557,-0.27267 0.12334,-0.66208 -0.01758,-1.01953c-0.14119,-0.35814 -0.3991,-0.59183 -0.63086,-0.75c-0.0013,-0.00131 -0.0026,-0.00261 -0.00391,-0.00391c-2.17736,-1.46965 -3.18652,-3.37472 -3.23633,-5.97461c-0.01526,-0.84646 0.25957,-1.60783 0.53711,-2.36719zM27.45508,22.14648c-0.38912,-0.0205 -0.77291,0.0475 -1.12891,0.25c-0.062,0.047 -0.32781,0.31092 -0.38281,0.41992c-0.172,0.335 0.00952,0.60584 0.22852,0.71484c0.133,0.07 0.31181,0.15625 0.50781,0.15625c0.524,0 1.00095,0.08744 1.37695,0.39844c0.461,0.381 0.61756,0.79913 0.47656,1.45312c-0.062,0.303 -0.10125,0.83378 -0.03125,1.17578c0.164,0.801 0.55552,1.05858 1.10352,1.51758c0.352,0.296 1.0007,0.53686 1.5957,0.50586c0.383,-0.016 0.78264,-0.15536 1.18164,-0.31836c0.462,-0.195 0.633,-0.5153 0.5,-0.9043c-0.219,-0.622 -0.54058,-1.16631 -0.89258,-1.69531c-0.446,-0.677 -0.58714,-0.92708 -1.36914,-1.83008c-0.767,-0.747 -1.29795,-1.2745 -2.00195,-1.5625c-0.3795,-0.1515 -0.77494,-0.26075 -1.16406,-0.28125zM26.78125,24.61328c-0.344,0 -0.61719,0.27323 -0.61719,0.61523c0,0.343 0.26538,0.61523 0.60938,0.61523c0.344,0 0.61914,-0.27323 0.61914,-0.61523c0,-0.163 -0.06188,-0.31874 -0.17187,-0.42773c-0.063,-0.07 -0.14252,-0.11744 -0.22852,-0.14844c-0.062,-0.024 -0.13294,-0.03906 -0.21094,-0.03906z"></path></g></g></svg>