<svg xmlns="http://www.w3.org/2000/svg" xmlns:xlink="http://www.w3.org/1999/xlink" viewBox="0,0,256,256" width="128px" height="128px" fill-rule="nonzero"><g fill="#ffffff" fill-rule="nonzero" stroke="none" stroke-width="1" stroke-linecap="butt" stroke-linejoin="miter" stroke-miterlimit="10" stroke-dasharray="" stroke-dashoffset="0" font-family="none" font-weight="none" font-size="none" text-anchor="none" style="mix-blend-mode: normal"><g transform="scale(4,4)"><path d="M8,4c-2.21094,0 -4,1.78906 -4,4v36c0,2.21094 1.78906,4 4,4h20.82031l3.21875,11.26953c0.01172,0.03516 0.03125,0.0625 0.04297,0.09375c0.02344,0.05078 0.03906,0.09766 0.07031,0.14453c0.04297,0.07422 0.09375,0.13281 0.15625,0.19531c0.01953,0.01953 0.02734,0.04688 0.05078,0.0625c0.00781,0.00781 0.01563,0.00781 0.01953,0.01563c0.06641,0.05078 0.14453,0.08984 0.22266,0.125c0.02344,0.01172 0.04688,0.02734 0.07031,0.03516c0.09766,0.03516 0.20313,0.05469 0.3125,0.05859c0.00781,0 0.01172,0 0.01563,0h23c2.21094,0 4,-1.78906 4,-4v-36c0,-2.21094 -1.78906,-4 -4,-4h-20.82031l-2.80078,-9.82031c-0.36719,-1.28906 -1.55859,-2.17969 -2.89062,-2.17969zM8,6h21.48828c0.45313,0 0.83984,0.30078 0.96094,0.73047l2.64844,9.26953l0.57422,2l8,28h-33.67187c-1.10156,0 -2,-0.89844 -2,-2v-36c0,-1.10156 0.89844,-2 2,-2zM9,8c-0.55078,0 -1,0.44922 -1,1v2c0,0.55078 0.44922,1 1,1c0.55078,0 1,-0.44922 1,-1v-2c0,-0.55078 -0.44922,-1 -1,-1zM14,8c-0.55078,0 -1,0.44922 -1,1v2c0,0.55078 0.44922,1 1,1c0.55078,0 1,-0.44922 1,-1v-2c0,-0.55078 -0.44922,-1 -1,-1zM19,8c-0.55078,0 -1,0.44922 -1,1v2c0,0.55078 0.44922,1 1,1c0.55078,0 1,-0.44922 1,-1v-2c0,-0.55078 -0.44922,-1 -1,-1zM24,8c-0.55078,0 -1,0.44922 -1,1v2c0,0.55078 0.44922,1 1,1c0.55078,0 1,-0.44922 1,-1v-2c0,-0.55078 -0.44922,-1 -1,-1zM29,8c-0.55078,0 -1,0.44922 -1,1v2c0,0.55078 0.44922,1 1,1c0.55078,0 1,-0.44922 1,-1v-2c0,-0.55078 -0.44922,-1 -1,-1zM21.39063,17.96875c-0.42969,0 -0.8125,0.27734 -0.94922,0.68359l-5.39844,16c-0.17969,0.51953 0.10156,1.08984 0.625,1.26563c0.52344,0.17969 1.08984,-0.10547 1.26953,-0.62891l1.80078,-5.35156c0.05078,0.01172 0.09766,0.03125 0.15234,0.03125h5c0.05078,0 0.09375,-0.01953 0.14453,-0.03125l1.80859,5.35156c0.14063,0.41797 0.52734,0.67969 0.94141,0.67969c0.10938,0 0.21484,-0.01562 0.32422,-0.05078c0.51953,-0.17578 0.80078,-0.74609 0.625,-1.26562l-5.39844,-16c-0.13672,-0.40625 -0.51953,-0.68359 -0.94531,-0.68359zM35.76172,18h20.23828c1.10156,0 2,0.89844 2,2v36c0,1.10156 -0.89844,2 -2,2h-20.86328l2.86328,-3.4375v0.4375c0,0.55078 0.44922,1 1,1c0.55078,0 1,-0.44922 1,-1v-2c0,-0.22266 -0.08594,-0.42187 -0.21094,-0.58594l3.97656,-4.77344c0.00781,-0.00781 0.00781,-0.01562 0.01563,-0.02734c0.00391,-0.00391 0.01172,-0.00781 0.01563,-0.01562c0.02734,-0.03125 0.02734,-0.07031 0.04688,-0.10156c0.05078,-0.08594 0.09766,-0.16797 0.12109,-0.26172c0.01172,-0.05469 0.00781,-0.10547 0.01563,-0.16016c0.00391,-0.09375 0,-0.17969 -0.01562,-0.27344c-0.00781,-0.02344 0,-0.04687 -0.00781,-0.07031l-1.26953,-4.44922c1.02734,-0.59375 1.97656,-1.30469 2.82813,-2.09375c2.14844,2.19922 4.95313,3.78125 7.46875,3.78125c0.55469,0 1,-0.44531 1,-1c0,-0.55078 -0.44531,-1 -1,-1c-1.99219,0 -4.32031,-1.36719 -6.10937,-3.21875c1.94141,-2.32422 3.10938,-5.10547 3.10938,-7.78125v-1h3c0.55469,0 1,-0.44531 1,-1c0,-0.55078 -0.44531,-1 -1,-1h-7v-2c0,-0.55078 -0.44531,-1 -1,-1c-0.55078,0 -1,0.44922 -1,1v2h-3c-0.55078,0 -1,0.44922 -1,1c0,0.55469 0.44922,1 1,1h7v1c0,2.23438 -0.98047,4.39453 -2.41797,6.19531c-0.96094,-1.375 -1.58203,-2.85547 -1.58203,-4.19531c0,-0.55078 -0.44531,-1 -1,-1c-0.55078,0 -1,0.44922 -1,1c0,1.86719 0.87109,3.89063 2.21484,5.69141c-0.65625,0.62109 -1.36328,1.16016 -2.08203,1.62109zM21.39063,22.09766l1.98047,5.87109h-3.96484zM30.90234,48h9.96094l-7.42578,8.91016zM44,52c-0.55078,0 -1,0.44922 -1,1v2c0,0.55078 0.44922,1 1,1c0.55078,0 1,-0.44922 1,-1v-2c0,-0.55078 -0.44922,-1 -1,-1zM49,52c-0.55078,0 -1,0.44922 -1,1v2c0,0.55078 0.44922,1 1,1c0.55078,0 1,-0.44922 1,-1v-2c0,-0.55078 -0.44922,-1 -1,-1zM54,52c-0.55078,0 -1,0.44922 -1,1v2c0,0.55078 0.44922,1 1,1c0.55078,0 1,-0.44922 1,-1v-2c0,-0.55078 -0.44922,-1 -1,-1z"></path></g></g></svg>